# xmcd
#
# Track frame offsets:
#	150
#	16159
#	36156
#	50999
#	68661
#	82984
#	98403
#	117200
#	131094
#	148863
#	164749
#	179953
#	193782
#	207659
#	221948
#	238467
#	255343
#	273101
#	288216
#	305825
#
# Disc length: 4269 seconds
#
# Revision: 1
# Processed by: cddbd v1.5.2PL0 Copyright (c) Steve Scherf et al.
# Submitted via: audiograbber 1.82.02
#
DISCID=3f10ab14
DTITLE=Various Artist - Country Radio - January 2013
DYEAR=2013
DGENRE=Country
TTITLE0=Jana Kramer - Whiskey
TTITLE1=Aaron Lewis - Forever
TTITLE2=Love and Theft - Runnin' Out Of Air
TTITLE3=Bill Gentry - Hell and Half Of Georgia
TTITLE4=Band Perry - Better Dig Two
TTITLE5=Jerrod Niemann - Only God Could Love You More
TTITLE6=Brantley Gilbert - More Than Miles
TTITLE7=Dustin Lynch - She Cranks My Tractor
TTITLE8=Carrie Underwood - Blown Away (VH1 Unplugged Ver)
TTITLE9=Mark Cooke - Stay With Me Tonight
TTITLE10=Toby Keith - Hope On The Rocks
TTITLE11=Henningsens - American Beautiful
TTITLE12=Jason Aldean - Take A Little Ride
TTITLE13=Hayden Panettiere - Telescope (Radio Mix)
TTITLE14=Kristy Lee Cook - Airborne Ranger Infantry
TTITLE15=George Strait - Give It All We've Got (Radio Edit)
TTITLE16=Kelly Clarkson (Ft. Vince Gill) - Don't Rush
TTITLE17=Thompson Square - If I Didn't Have You
TTITLE18=Taylor Swift - Begin Again
TTITLE19=Jason Aldean, Luke Bryan and Eric Church - Only Way I Know, The
EXTD=
EXTT0=
EXTT1=
EXTT2=
EXTT3=
EXTT4=
EXTT5=
EXTT6=
EXTT7=
EXTT8=
EXTT9=
EXTT10=
EXTT11=
EXTT12=
EXTT13=
EXTT14=
EXTT15=
EXTT16=
EXTT17=
EXTT18=
EXTT19=
PLAYORDER=
